<svg xmlns="http://www.w3.org/2000/svg" viewBox="0 0 100 100">
  <defs>
    <!-- Gradient for the baked dough look -->
    <linearGradient id="doughGradient" x1="0%" y1="0%" x2="100%" y2="100%">
      <stop offset="0%" style="stop-color:#e0c097;stop-opacity:1" />
      <stop offset="50%" style="stop-color:#b88a44;stop-opacity:1" />
      <stop offset="100%" style="stop-color:#7f5539;stop-opacity:1" />
    </linearGradient>
    <filter id="shadow">
      <feDropShadow dx="2" dy="2" stdDeviation="2" flood-color="#000" flood-opacity="0.3"/>
    </filter>
  </defs>
  
  <!-- The Covrig (Ring) Body -->
  <circle cx="50" cy="50" r="35" fill="none" stroke="url(#doughGradient)" stroke-width="22" filter="url(#shadow)" />
  
  <!-- Sesame Seeds -->
  <g fill="#fdf8f6" opacity="0.9">
    <ellipse cx="50" cy="20" rx="1.5" ry="2.5" transform="rotate(15 50 20)" />
    <ellipse cx="65" cy="25" rx="1.5" ry="2.5" transform="rotate(45 65 25)" />
    <ellipse cx="75" cy="40" rx="1.5" ry="2.5" transform="rotate(70 75 40)" />
    <ellipse cx="78" cy="60" rx="1.5" ry="2.5" transform="rotate(100 78 60)" />
    <ellipse cx="68" cy="78" rx="1.5" ry="2.5" transform="rotate(130 68 78)" />
    <ellipse cx="50" cy="83" rx="1.5" ry="2.5" transform="rotate(10 50 83)" />
    <ellipse cx="32" cy="75" rx="1.5" ry="2.5" transform="rotate(-30 32 75)" />
    <ellipse cx="22" cy="60" rx="1.5" ry="2.5" transform="rotate(-60 22 60)" />
    <ellipse cx="20" cy="40" rx="1.5" ry="2.5" transform="rotate(-80 20 40)" />
    <ellipse cx="30" cy="25" rx="1.5" ry="2.5" transform="rotate(-40 30 25)" />
    
    <!-- Inner seeds -->
    <ellipse cx="45" cy="25" rx="1.5" ry="2.5" transform="rotate(20 45 25)" />
    <ellipse cx="70" cy="50" rx="1.5" ry="2.5" transform="rotate(90 70 50)" />
    <ellipse cx="55" cy="75" rx="1.5" ry="2.5" transform="rotate(160 55 75)" />
    <ellipse cx="28" cy="55" rx="1.5" ry="2.5" transform="rotate(-70 28 55)" />
  </g>
</svg>